<!--?xml version="1.0" standalone="no"?-->
              <svg id="sw-js-blob-svg" viewBox="0 0 100 100" xmlns="http://www.w3.org/2000/svg" version="1.1">
                    <defs> 
                        <linearGradient id="sw-gradient" x1="0" x2="1" y1="1" y2="0">
                            <stop id="stop1" stop-color="rgba(96, 153, 102, 1)" offset="0%"></stop>
                            <stop id="stop2" stop-color="rgba(157, 192, 139, 1)" offset="100%"></stop>
                        </linearGradient>
                    </defs>
                <path fill="url(#sw-gradient)" d="M13.3,-18.9C18.7,-17.3,25.4,-16,28.4,-12.1C31.4,-8.3,30.8,-2,29.5,4C28.2,9.9,26.2,15.5,22,17.5C17.8,19.5,11.3,17.9,6.2,17.9C1.1,17.9,-2.5,19.5,-7.9,20.8C-13.3,22,-20.5,23,-26.6,20.5C-32.8,18,-38,12.1,-38.2,5.9C-38.3,-0.2,-33.5,-6.7,-28.4,-10.9C-23.2,-15.1,-17.8,-17.2,-13,-19.1C-8.2,-20.9,-4.1,-22.6,-0.1,-22.5C4,-22.4,8,-20.5,13.3,-18.9Z" width="100%" height="100%" transform="translate(50 50)" stroke-width="0" style="transition: all 0.3s ease 0s;" stroke="url(#sw-gradient)"></path>
              </svg>