<svg id="visual" viewBox="0 0 900 450" width="900" height="450" xmlns="http://www.w3.org/2000/svg" xmlns:xlink="http://www.w3.org/1999/xlink" version="1.1"><path d="M0 343L7.5 345.7C15 348.3 30 353.7 45 355.8C60 358 75 357 90 353C105 349 120 342 135 343.7C150 345.3 165 355.7 180 360.7C195 365.7 210 365.3 225 364.2C240 363 255 361 270 355.8C285 350.7 300 342.3 315 340.2C330 338 345 342 360 347.5C375 353 390 360 405 361.3C420 362.7 435 358.3 450 355.3C465 352.3 480 350.7 495 348.3C510 346 525 343 540 345.7C555 348.3 570 356.7 585 361.2C600 365.7 615 366.3 630 366.5C645 366.7 660 366.3 675 366C690 365.7 705 365.3 720 361.5C735 357.7 750 350.3 765 348.5C780 346.7 795 350.3 810 353.2C825 356 840 358 855 359C870 360 885 360 892.5 360L900 360L900 451L892.5 451C885 451 870 451 855 451C840 451 825 451 810 451C795 451 780 451 765 451C750 451 735 451 720 451C705 451 690 451 675 451C660 451 645 451 630 451C615 451 600 451 585 451C570 451 555 451 540 451C525 451 510 451 495 451C480 451 465 451 450 451C435 451 420 451 405 451C390 451 375 451 360 451C345 451 330 451 315 451C300 451 285 451 270 451C255 451 240 451 225 451C210 451 195 451 180 451C165 451 150 451 135 451C120 451 105 451 90 451C75 451 60 451 45 451C30 451 15 451 7.5 451L0 451Z" fill="#9dc08b"></path><path d="M0 368L7.5 369.3C15 370.7 30 373.3 45 373.2C60 373 75 370 90 365.7C105 361.3 120 355.7 135 351.8C150 348 165 346 180 347.2C195 348.3 210 352.7 225 353.8C240 355 255 353 270 354.2C285 355.3 300 359.7 315 360.3C330 361 345 358 360 356C375 354 390 353 405 352.2C420 351.3 435 350.7 450 351.5C465 352.3 480 354.7 495 354.3C510 354 525 351 540 352.5C555 354 570 360 585 362.5C600 365 615 364 630 362.5C645 361 660 359 675 361.5C690 364 705 371 720 369.8C735 368.7 750 359.3 765 353.7C780 348 795 346 810 345.8C825 345.7 840 347.3 855 347.7C870 348 885 347 892.5 346.5L900 346L900 451L892.5 451C885 451 870 451 855 451C840 451 825 451 810 451C795 451 780 451 765 451C750 451 735 451 720 451C705 451 690 451 675 451C660 451 645 451 630 451C615 451 600 451 585 451C570 451 555 451 540 451C525 451 510 451 495 451C480 451 465 451 450 451C435 451 420 451 405 451C390 451 375 451 360 451C345 451 330 451 315 451C300 451 285 451 270 451C255 451 240 451 225 451C210 451 195 451 180 451C165 451 150 451 135 451C120 451 105 451 90 451C75 451 60 451 45 451C30 451 15 451 7.5 451L0 451Z" fill="#a6c592"></path><path d="M0 361L7.5 360.3C15 359.7 30 358.3 45 358.2C60 358 75 359 90 358.8C105 358.7 120 357.3 135 360.5C150 363.7 165 371.3 180 375.5C195 379.7 210 380.3 225 381.2C240 382 255 383 270 384C285 385 300 386 315 383C330 380 345 373 360 372.7C375 372.3 390 378.7 405 381.3C420 384 435 383 450 378C465 373 480 364 495 359.7C510 355.3 525 355.7 540 360.8C555 366 570 376 585 378.2C600 380.3 615 374.7 630 374.7C645 374.7 660 380.3 675 378.3C690 376.3 705 366.7 720 363.3C735 360 750 363 765 363C780 363 795 360 810 361.2C825 362.3 840 367.7 855 368.8C870 370 885 367 892.5 365.5L900 364L900 451L892.5 451C885 451 870 451 855 451C840 451 825 451 810 451C795 451 780 451 765 451C750 451 735 451 720 451C705 451 690 451 675 451C660 451 645 451 630 451C615 451 600 451 585 451C570 451 555 451 540 451C525 451 510 451 495 451C480 451 465 451 450 451C435 451 420 451 405 451C390 451 375 451 360 451C345 451 330 451 315 451C300 451 285 451 270 451C255 451 240 451 225 451C210 451 195 451 180 451C165 451 150 451 135 451C120 451 105 451 90 451C75 451 60 451 45 451C30 451 15 451 7.5 451L0 451Z" fill="#afc998"></path><path d="M0 363L7.5 366.8C15 370.7 30 378.3 45 378.8C60 379.3 75 372.7 90 369.8C105 367 120 368 135 369.8C150 371.7 165 374.3 180 376.5C195 378.7 210 380.3 225 378.2C240 376 255 370 270 369C285 368 300 372 315 376.3C330 380.7 345 385.3 360 387.5C375 389.7 390 389.3 405 386.2C420 383 435 377 450 376.8C465 376.7 480 382.3 495 383.2C510 384 525 380 540 377.8C555 375.7 570 375.3 585 377.8C600 380.3 615 385.7 630 384.3C645 383 660 375 675 374.3C690 373.7 705 380.3 720 383.5C735 386.7 750 386.3 765 386.5C780 386.7 795 387.3 810 386.5C825 385.7 840 383.3 855 382.3C870 381.3 885 381.7 892.5 381.8L900 382L900 451L892.5 451C885 451 870 451 855 451C840 451 825 451 810 451C795 451 780 451 765 451C750 451 735 451 720 451C705 451 690 451 675 451C660 451 645 451 630 451C615 451 600 451 585 451C570 451 555 451 540 451C525 451 510 451 495 451C480 451 465 451 450 451C435 451 420 451 405 451C390 451 375 451 360 451C345 451 330 451 315 451C300 451 285 451 270 451C255 451 240 451 225 451C210 451 195 451 180 451C165 451 150 451 135 451C120 451 105 451 90 451C75 451 60 451 45 451C30 451 15 451 7.5 451L0 451Z" fill="#b7ce9f"></path><path d="M0 377L7.5 380.3C15 383.7 30 390.3 45 393.8C60 397.3 75 397.7 90 394.3C105 391 120 384 135 380.7C150 377.3 165 377.7 180 381.2C195 384.7 210 391.3 225 394.7C240 398 255 398 270 395C285 392 300 386 315 386.2C330 386.3 345 392.7 360 391.8C375 391 390 383 405 380C420 377 435 379 450 383.2C465 387.3 480 393.7 495 394.8C510 396 525 392 540 390.5C555 389 570 390 585 388.5C600 387 615 383 630 382C645 381 660 383 675 384.8C690 386.7 705 388.3 720 387.5C735 386.7 750 383.3 765 383.3C780 383.3 795 386.7 810 387.3C825 388 840 386 855 387C870 388 885 392 892.5 394L900 396L900 451L892.5 451C885 451 870 451 855 451C840 451 825 451 810 451C795 451 780 451 765 451C750 451 735 451 720 451C705 451 690 451 675 451C660 451 645 451 630 451C615 451 600 451 585 451C570 451 555 451 540 451C525 451 510 451 495 451C480 451 465 451 450 451C435 451 420 451 405 451C390 451 375 451 360 451C345 451 330 451 315 451C300 451 285 451 270 451C255 451 240 451 225 451C210 451 195 451 180 451C165 451 150 451 135 451C120 451 105 451 90 451C75 451 60 451 45 451C30 451 15 451 7.5 451L0 451Z" fill="#c0d3a7"></path><path d="M0 385L7.5 387.2C15 389.3 30 393.7 45 397.2C60 400.7 75 403.3 90 401.8C105 400.3 120 394.7 135 391.5C150 388.3 165 387.7 180 388C195 388.3 210 389.7 225 390.3C240 391 255 391 270 393.5C285 396 300 401 315 400.5C330 400 345 394 360 392.8C375 391.7 390 395.3 405 396.3C420 397.3 435 395.7 450 393.8C465 392 480 390 495 390.2C510 390.3 525 392.7 540 392.5C555 392.3 570 389.7 585 391.2C600 392.7 615 398.3 630 399.3C645 400.3 660 396.7 675 394.5C690 392.3 705 391.7 720 391C735 390.3 750 389.7 765 392C780 394.3 795 399.7 810 398.8C825 398 840 391 855 390C870 389 885 394 892.5 396.5L900 399L900 451L892.5 451C885 451 870 451 855 451C840 451 825 451 810 451C795 451 780 451 765 451C750 451 735 451 720 451C705 451 690 451 675 451C660 451 645 451 630 451C615 451 600 451 585 451C570 451 555 451 540 451C525 451 510 451 495 451C480 451 465 451 450 451C435 451 420 451 405 451C390 451 375 451 360 451C345 451 330 451 315 451C300 451 285 451 270 451C255 451 240 451 225 451C210 451 195 451 180 451C165 451 150 451 135 451C120 451 105 451 90 451C75 451 60 451 45 451C30 451 15 451 7.5 451L0 451Z" fill="#c8d8ae"></path><path d="M0 402L7.5 402.3C15 402.7 30 403.3 45 402.8C60 402.3 75 400.7 90 399C105 397.3 120 395.7 135 398C150 400.3 165 406.7 180 409.7C195 412.7 210 412.3 225 411.7C240 411 255 410 270 408.3C285 406.7 300 404.3 315 403.7C330 403 345 404 360 403.2C375 402.3 390 399.7 405 399C420 398.3 435 399.7 450 401.8C465 404 480 407 495 406.7C510 406.3 525 402.7 540 400.2C555 397.7 570 396.3 585 398.7C600 401 615 407 630 408C645 409 660 405 675 402.2C690 399.3 705 397.7 720 397.3C735 397 750 398 765 397.5C780 397 795 395 810 397.5C825 400 840 407 855 408C870 409 885 404 892.5 401.5L900 399L900 451L892.5 451C885 451 870 451 855 451C840 451 825 451 810 451C795 451 780 451 765 451C750 451 735 451 720 451C705 451 690 451 675 451C660 451 645 451 630 451C615 451 600 451 585 451C570 451 555 451 540 451C525 451 510 451 495 451C480 451 465 451 450 451C435 451 420 451 405 451C390 451 375 451 360 451C345 451 330 451 315 451C300 451 285 451 270 451C255 451 240 451 225 451C210 451 195 451 180 451C165 451 150 451 135 451C120 451 105 451 90 451C75 451 60 451 45 451C30 451 15 451 7.5 451L0 451Z" fill="#d0ddb6"></path><path d="M0 409L7.5 410.5C15 412 30 415 45 417C60 419 75 420 90 417.8C105 415.7 120 410.3 135 409C150 407.7 165 410.3 180 410.8C195 411.3 210 409.7 225 408.2C240 406.7 255 405.3 270 406.3C285 407.3 300 410.7 315 413.3C330 416 345 418 360 416.2C375 414.3 390 408.7 405 406.2C420 403.7 435 404.3 450 405.7C465 407 480 409 495 410.8C510 412.7 525 414.3 540 413C555 411.7 570 407.3 585 405.5C600 403.7 615 404.3 630 406.7C645 409 660 413 675 414.2C690 415.3 705 413.7 720 412.5C735 411.3 750 410.7 765 410.2C780 409.7 795 409.3 810 408.7C825 408 840 407 855 407.8C870 408.7 885 411.3 892.5 412.7L900 414L900 451L892.5 451C885 451 870 451 855 451C840 451 825 451 810 451C795 451 780 451 765 451C750 451 735 451 720 451C705 451 690 451 675 451C660 451 645 451 630 451C615 451 600 451 585 451C570 451 555 451 540 451C525 451 510 451 495 451C480 451 465 451 450 451C435 451 420 451 405 451C390 451 375 451 360 451C345 451 330 451 315 451C300 451 285 451 270 451C255 451 240 451 225 451C210 451 195 451 180 451C165 451 150 451 135 451C120 451 105 451 90 451C75 451 60 451 45 451C30 451 15 451 7.5 451L0 451Z" fill="#d7e2bd"></path><path d="M0 423L7.5 423.5C15 424 30 425 45 425.2C60 425.3 75 424.7 90 422.7C105 420.7 120 417.3 135 415.5C150 413.7 165 413.3 180 414.5C195 415.7 210 418.3 225 420.8C240 423.3 255 425.7 270 426C285 426.3 300 424.7 315 424C330 423.3 345 423.7 360 424.3C375 425 390 426 405 425.2C420 424.3 435 421.7 450 419.8C465 418 480 417 495 417.8C510 418.7 525 421.3 540 423C555 424.7 570 425.3 585 424.5C600 423.7 615 421.3 630 419.3C645 417.3 660 415.7 675 415C690 414.3 705 414.7 720 414.7C735 414.7 750 414.3 765 416C780 417.7 795 421.3 810 423.5C825 425.7 840 426.3 855 424.7C870 423 885 419 892.5 417L900 415L900 451L892.5 451C885 451 870 451 855 451C840 451 825 451 810 451C795 451 780 451 765 451C750 451 735 451 720 451C705 451 690 451 675 451C660 451 645 451 630 451C615 451 600 451 585 451C570 451 555 451 540 451C525 451 510 451 495 451C480 451 465 451 450 451C435 451 420 451 405 451C390 451 375 451 360 451C345 451 330 451 315 451C300 451 285 451 270 451C255 451 240 451 225 451C210 451 195 451 180 451C165 451 150 451 135 451C120 451 105 451 90 451C75 451 60 451 45 451C30 451 15 451 7.5 451L0 451Z" fill="#dfe7c5"></path><path d="M0 430L7.5 429.7C15 429.3 30 428.7 45 428C60 427.3 75 426.7 90 426.7C105 426.7 120 427.3 135 429C150 430.7 165 433.3 180 433.5C195 433.7 210 431.3 225 429.5C240 427.7 255 426.3 270 426.3C285 426.3 300 427.7 315 428.7C330 429.7 345 430.3 360 430.5C375 430.7 390 430.3 405 429.7C420 429 435 428 450 427C465 426 480 425 495 425C510 425 525 426 540 427.5C555 429 570 431 585 431.8C600 432.7 615 432.3 630 431.2C645 430 660 428 675 428.7C690 429.3 705 432.7 720 432.2C735 431.7 750 427.3 765 425.2C780 423 795 423 810 424.2C825 425.3 840 427.7 855 429.3C870 431 885 432 892.5 432.5L900 433L900 451L892.5 451C885 451 870 451 855 451C840 451 825 451 810 451C795 451 780 451 765 451C750 451 735 451 720 451C705 451 690 451 675 451C660 451 645 451 630 451C615 451 600 451 585 451C570 451 555 451 540 451C525 451 510 451 495 451C480 451 465 451 450 451C435 451 420 451 405 451C390 451 375 451 360 451C345 451 330 451 315 451C300 451 285 451 270 451C255 451 240 451 225 451C210 451 195 451 180 451C165 451 150 451 135 451C120 451 105 451 90 451C75 451 60 451 45 451C30 451 15 451 7.5 451L0 451Z" fill="#e6ecce"></path><path d="M0 436L7.5 436.3C15 436.7 30 437.3 45 437.8C60 438.3 75 438.7 90 437.7C105 436.7 120 434.3 135 433.7C150 433 165 434 180 434.2C195 434.3 210 433.7 225 433.3C240 433 255 433 270 434.2C285 435.3 300 437.7 315 437.8C330 438 345 436 360 435.5C375 435 390 436 405 436C420 436 435 435 450 435.8C465 436.7 480 439.3 495 440.5C510 441.7 525 441.3 540 441.3C555 441.3 570 441.7 585 441.7C600 441.7 615 441.3 630 440.2C645 439 660 437 675 435.8C690 434.7 705 434.3 720 435C735 435.7 750 437.3 765 437C780 436.7 795 434.3 810 434C825 433.7 840 435.3 855 436.2C870 437 885 437 892.5 437L900 437L900 451L892.5 451C885 451 870 451 855 451C840 451 825 451 810 451C795 451 780 451 765 451C750 451 735 451 720 451C705 451 690 451 675 451C660 451 645 451 630 451C615 451 600 451 585 451C570 451 555 451 540 451C525 451 510 451 495 451C480 451 465 451 450 451C435 451 420 451 405 451C390 451 375 451 360 451C345 451 330 451 315 451C300 451 285 451 270 451C255 451 240 451 225 451C210 451 195 451 180 451C165 451 150 451 135 451C120 451 105 451 90 451C75 451 60 451 45 451C30 451 15 451 7.5 451L0 451Z" fill="#edf1d6"></path></svg>