<svg id="visual" viewBox="0 0 960 180" width="960" height="180" stroke="none" xmlns="http://www.w3.org/2000/svg" xmlns:xlink="http://www.w3.org/1999/xlink" version="1.1"><rect x="0" y="0" width="960" height="540" fill="none"></rect><path d="M0 154L22.8 148.8C45.7 143.7 91.3 133.3 137 126C182.7 118.7 228.3 114.3 274 114.8C319.7 115.3 365.3 120.7 411.2 129.5C457 138.3 503 150.7 548.8 152.2C594.7 153.7 640.3 144.3 686 144C731.7 143.7 777.3 152.3 823 149.7C868.7 147 914.3 133 937.2 126L960 119L960 0L937.2 0C914.3 0 868.7 0 823 0C777.3 0 731.7 0 686 0C640.3 0 594.7 0 548.8 0C503 0 457 0 411.2 0C365.3 0 319.7 0 274 0C228.3 0 182.7 0 137 0C91.3 0 45.7 0 22.8 0L0 0Z" fill="#609966"></path><path d="M0 94L22.8 90.7C45.7 87.3 91.3 80.7 137 79.8C182.7 79 228.3 84 274 91C319.7 98 365.3 107 411.2 108.5C457 110 503 104 548.8 104.8C594.7 105.7 640.3 113.3 686 114.8C731.7 116.3 777.3 111.7 823 108C868.7 104.3 914.3 101.7 937.2 100.3L960 99L960 0L937.2 0C914.3 0 868.7 0 823 0C777.3 0 731.7 0 686 0C640.3 0 594.7 0 548.8 0C503 0 457 0 411.2 0C365.3 0 319.7 0 274 0C228.3 0 182.7 0 137 0C91.3 0 45.7 0 22.8 0L0 0Z" fill="#abc498"></path><path d="M0 37L22.8 38C45.7 39 91.3 41 137 44.3C182.7 47.7 228.3 52.3 274 55.7C319.7 59 365.3 61 411.2 57.7C457 54.3 503 45.7 548.8 41.5C594.7 37.3 640.3 37.7 686 39.2C731.7 40.7 777.3 43.3 823 44C868.7 44.7 914.3 43.3 937.2 42.7L960 42L960 0L937.2 0C914.3 0 868.7 0 823 0C777.3 0 731.7 0 686 0C640.3 0 594.7 0 548.8 0C503 0 457 0 411.2 0C365.3 0 319.7 0 274 0C228.3 0 182.7 0 137 0C91.3 0 45.7 0 22.8 0L0 0Z" fill="#edf1d6"></path></svg>